<svg xmlns="http://www.w3.org/2000/svg" xmlns:xlink="http://www.w3.org/1999/xlink" viewBox="0 0 164.409 164.409"><defs><style>.cls-1,.cls-39,.cls-46{fill:none;}.cls-2{isolation:isolate;}.cls-3{clip-path:url(#clip-path);}.cls-4{clip-path:url(#clip-path-4);}.cls-15,.cls-5{opacity:0.4;}.cls-12,.cls-5,.cls-8{mix-blend-mode:overlay;}.cls-6{clip-path:url(#clip-path-5);}.cls-7{fill:#006bb6;}.cls-19,.cls-8{opacity:0.2;}.cls-9{clip-path:url(#clip-path-6);}.cls-10{fill:#0077c0;}.cls-11{clip-path:url(#clip-path-7);}.cls-12{opacity:0.7;}.cls-13{clip-path:url(#clip-path-8);}.cls-14{clip-path:url(#clip-path-9);}.cls-15,.cls-17,.cls-19,.cls-21{mix-blend-mode:hard-light;}.cls-16{clip-path:url(#clip-path-10);}.cls-17{opacity:0.3;}.cls-18{clip-path:url(#clip-path-11);}.cls-20{clip-path:url(#clip-path-12);}.cls-21{opacity:0.6;}.cls-22{clip-path:url(#clip-path-13);}.cls-23{clip-path:url(#clip-path-14);}.cls-24{clip-path:url(#clip-path-15);}.cls-25{clip-path:url(#clip-path-16);}.cls-26{clip-path:url(#clip-path-17);}.cls-27{clip-path:url(#clip-path-18);}.cls-28{clip-path:url(#clip-path-19);}.cls-29{clip-path:url(#clip-path-20);}.cls-30{clip-path:url(#clip-path-21);}.cls-31{clip-path:url(#clip-path-22);}.cls-32{clip-path:url(#clip-path-23);}.cls-33{clip-path:url(#clip-path-24);}.cls-34{clip-path:url(#clip-path-25);}.cls-35{clip-path:url(#clip-path-26);}.cls-36{clip-path:url(#clip-path-27);}.cls-37{clip-path:url(#clip-path-28);}.cls-38{clip-path:url(#clip-path-29);}.cls-39{stroke:#ed1c24;stroke-width:0.25px;}.cls-40,.cls-48{fill:#fff;}.cls-41{fill:#72c6ef;}.cls-42{fill:#7c9640;}.cls-43{fill:#ed1a3b;}.cls-44{fill:#f6891f;}.cls-45{fill:#ffcb05;}.cls-46{stroke:#fff;stroke-miterlimit:10;stroke-width:1.3px;}.cls-47{clip-path:url(#clip-path-31);}.cls-48{fill-rule:evenodd;}</style><clipPath id="clip-path"><rect class="cls-1" width="164.409" height="164.409"/></clipPath><clipPath id="clip-path-4"><rect class="cls-1" x="-8.504" y="-8.504" width="181.417" height="181.417"/></clipPath><clipPath id="clip-path-5"><rect class="cls-1" x="-8.504" y="126.082" width="57.7" height="46.689"/></clipPath><clipPath id="clip-path-6"><rect class="cls-1" x="36.698" y="130.31" width="52.073" height="42.46"/></clipPath><clipPath id="clip-path-7"><rect class="cls-1" x="72.106" y="130.31" width="37.91" height="42.46"/></clipPath><clipPath id="clip-path-8"><rect class="cls-1" x="103.143" y="147.509" width="55.823" height="25.261"/></clipPath><clipPath id="clip-path-9"><rect class="cls-1" x="139.909" y="128.347" width="33.938" height="44.423"/></clipPath><clipPath id="clip-path-10"><rect class="cls-1" x="-8.504" y="138.179" width="19.409" height="34.592"/></clipPath><clipPath id="clip-path-11"><rect class="cls-1" x="10.905" y="144.757" width="31.713" height="28.013"/></clipPath><clipPath id="clip-path-12"><rect class="cls-1" x="28.288" y="126.082" width="29.54" height="46.689"/></clipPath><clipPath id="clip-path-13"><rect class="cls-1" x="55.715" y="126.082" width="26.956" height="46.689"/></clipPath><clipPath id="clip-path-14"><rect class="cls-1" x="81.578" y="139.823" width="32.453" height="32.947"/></clipPath><clipPath id="clip-path-15"><rect class="cls-1" x="108.863" y="139.823" width="23.492" height="32.947"/></clipPath><clipPath id="clip-path-16"><rect class="cls-1" x="128.127" y="144.757" width="45.72" height="28.013"/></clipPath><clipPath id="clip-path-17"><rect class="cls-1" x="-8.504" y="-8.505" width="181.417" height="181.418"/></clipPath><clipPath id="clip-path-18"><rect class="cls-1" x="-8.504" y="-8.362" width="57.7" height="46.689"/></clipPath><clipPath id="clip-path-19"><rect class="cls-1" x="36.698" y="-8.362" width="52.073" height="42.461"/></clipPath><clipPath id="clip-path-20"><rect class="cls-1" x="72.106" y="-8.362" width="37.91" height="42.461"/></clipPath><clipPath id="clip-path-21"><rect class="cls-1" x="103.143" y="-8.362" width="55.823" height="25.261"/></clipPath><clipPath id="clip-path-22"><rect class="cls-1" x="139.909" y="-8.362" width="33.938" height="44.424"/></clipPath><clipPath id="clip-path-23"><rect class="cls-1" x="-8.504" y="-8.362" width="19.409" height="34.592"/></clipPath><clipPath id="clip-path-24"><rect class="cls-1" x="10.905" y="-8.362" width="31.713" height="28.013"/></clipPath><clipPath id="clip-path-25"><rect class="cls-1" x="28.288" y="-8.362" width="29.54" height="46.689"/></clipPath><clipPath id="clip-path-26"><rect class="cls-1" x="55.715" y="-8.362" width="26.956" height="46.689"/></clipPath><clipPath id="clip-path-27"><rect class="cls-1" x="81.578" y="-8.362" width="32.453" height="32.948"/></clipPath><clipPath id="clip-path-28"><rect class="cls-1" x="108.863" y="-8.362" width="23.492" height="32.948"/></clipPath><clipPath id="clip-path-29"><rect class="cls-1" x="128.127" y="-8.362" width="45.72" height="28.013"/></clipPath><clipPath id="clip-path-31"><rect class="cls-1" x="38.275" y="70.299" width="102.682" height="25.777"/></clipPath></defs><g class="cls-2"><g id="Layer_1_copy" data-name="Layer 1 copy"><g class="cls-3"><g class="cls-3"><g class="cls-3"><g class="cls-4"><g class="cls-5"><g class="cls-6"><polygon class="cls-7" points="15.368 126.082 -8.504 152.51 -8.504 172.77 49.195 172.77 43.91 130.31 15.368 126.082"/></g></g><g class="cls-8"><g class="cls-9"><polygon class="cls-10" points="43.91 130.31 36.697 172.77 88.77 172.77 75.022 130.31 43.91 130.31"/></g></g><g class="cls-5"><g class="cls-11"><polygon class="cls-10" points="75.022 130.31 72.106 172.77 104.186 172.77 110.017 156.049 75.022 130.31"/></g></g><g class="cls-12"><g class="cls-13"><polygon class="cls-10" points="140.844 147.51 110.017 156.049 103.144 172.77 158.966 172.77 140.844 147.51"/></g></g><g class="cls-8"><g class="cls-14"><polygon class="cls-10" points="158.965 128.347 139.909 147.769 158.966 172.77 173.846 172.77 173.846 138.058 158.967 128.347 158.965 128.347"/></g></g><g class="cls-15"><g class="cls-16"><polygon class="cls-10" points="0.099 138.178 -8.504 142.408 -8.504 172.77 10.905 172.77 10.905 149.424 0.099 138.178"/></g></g><g class="cls-17"><g class="cls-18"><polygon class="cls-10" points="28.289 144.757 10.906 149.425 10.906 172.77 42.618 172.77 28.289 144.757"/></g></g><g class="cls-19"><g class="cls-20"><polygon class="cls-10" points="28.289 144.757 42.617 172.77 55.715 172.77 57.829 126.101 57.829 126.082 28.289 144.757"/></g></g><g class="cls-21"><g class="cls-22"><polygon class="cls-10" points="57.829 126.082 55.715 172.77 82.672 172.77 81.578 150.56 57.829 126.082"/></g></g><g class="cls-15"><g class="cls-23"><polygon class="cls-10" points="81.579 150.559 82.672 172.77 114.032 172.77 108.863 139.824 81.579 150.559"/></g></g><g class="cls-19"><g class="cls-24"><polygon class="cls-10" points="114.033 172.77 128.127 172.77 132.355 155.479 132.355 155.475 108.863 139.823 114.033 172.77"/></g></g><g class="cls-17"><g class="cls-25"><polygon class="cls-10" points="132.356 155.475 128.127 172.77 173.847 172.77 173.847 144.758 132.356 155.475"/></g></g></g><g class="cls-26"><g class="cls-5"><g class="cls-27"><polygon class="cls-7" points="-8.504 -8.361 -8.504 11.9 15.368 38.327 43.91 34.098 49.196 -8.361 -8.504 -8.361"/></g></g><g class="cls-8"><g class="cls-28"><polygon class="cls-10" points="36.697 -8.361 43.91 34.099 75.022 34.099 88.769 -8.361 36.697 -8.361"/></g></g><g class="cls-5"><g class="cls-29"><polygon class="cls-10" points="72.106 -8.361 75.022 34.099 110.017 8.36 104.186 -8.361 72.106 -8.361"/></g></g><g class="cls-12"><g class="cls-30"><polygon class="cls-10" points="103.144 -8.361 110.017 8.359 140.844 16.899 158.966 -8.361 103.144 -8.361"/></g></g><g class="cls-8"><g class="cls-31"><polygon class="cls-10" points="158.966 -8.361 139.909 16.64 158.965 36.062 158.967 36.062 173.847 26.351 173.847 -8.361 158.966 -8.361"/></g></g><g class="cls-15"><g class="cls-32"><polygon class="cls-10" points="-8.504 -8.361 -8.504 22 0.099 26.23 10.905 14.984 10.905 -8.361 -8.504 -8.361"/></g></g><g class="cls-17"><g class="cls-33"><polygon class="cls-10" points="10.905 -8.361 10.905 14.983 28.288 19.651 42.617 -8.361 10.905 -8.361"/></g></g><g class="cls-19"><g class="cls-34"><polygon class="cls-10" points="42.617 -8.361 28.289 19.651 57.828 38.327 57.828 38.308 55.714 -8.361 42.617 -8.361"/></g></g><g class="cls-21"><g class="cls-35"><polygon class="cls-10" points="55.715 -8.361 57.828 38.327 81.577 13.849 82.672 -8.361 55.715 -8.361"/></g></g><g class="cls-15"><g class="cls-36"><polygon class="cls-10" points="82.671 -8.361 81.578 13.85 108.863 24.585 114.032 -8.361 82.671 -8.361"/></g></g><g class="cls-19"><g class="cls-37"><polygon class="cls-10" points="114.033 -8.361 108.863 24.586 132.355 8.934 132.355 8.93 128.127 -8.361 114.033 -8.361"/></g></g><g class="cls-17"><g class="cls-38"><polygon class="cls-10" points="128.127 -8.361 132.356 8.934 173.847 19.651 173.847 -8.361 128.127 -8.361"/></g></g></g><path class="cls-39" d="M14.3.124S.125.124.125,14.3V150.36s0,14.173,14.173,14.173H150.361s14.173,0,14.173-14.173V14.3s0-14.174-14.173-14.174Z"/></g><rect class="cls-10" width="164.409" height="164.409"/><rect class="cls-40" width="13.786" height="164.409"/><path class="cls-41" d="M0,8.265V16.52L13.786,16.2V8.265ZM0,0V7.377l13.786-.35V0Z"/><polygon class="cls-42" points="0 94.208 13.786 94.279 13.786 87.698 0 87.654 0 94.208"/><path class="cls-41" d="M0,106.359v8.256l13.786-.316v-7.94Zm0-.887,13.786-.35v-7.7L0,96.988Z"/><polygon class="cls-43" points="0 83.901 13.786 84.112 13.786 77.092 0 76.656 0 83.901"/><polygon class="cls-10" points="0 53.738 13.786 53.948 13.786 44.917 0 44.604 0 53.738"/><path class="cls-44" d="M0,68.827v3.179l13.786-.2v-3.66Zm0-.848,13.786-1.058V58.245L0,57.617Z"/><path class="cls-45" d="M0,34.69v6.589l13.786-.139V34.216ZM0,34.1l13.786-.737V21.589L0,21.5Z"/><polygon class="cls-10" points="0 152.145 13.786 152.355 13.786 143.476 0 143.163 0 152.145"/><polygon class="cls-44" points="0 164.409 13.786 164.409 13.786 156.804 0 156.266 0 164.409"/><path class="cls-45" d="M0,132.081v7.087l13.786-.139v-7.423Zm0-.979,13.786-.737V119.813L0,119.726Z"/><g class="cls-3"><line class="cls-46" x1="14.173" y1="172.913" x2="14.173" y2="-8.504"/></g><polygon class="cls-40" points="99.524 71.268 105.124 71.268 100.496 88.551 94.894 88.551 99.524 71.268"/><g class="cls-47"><path class="cls-40" d="M133.626,71.27l-10.846.015-4.626,17.268h5.481l2.084-7.781h1.3a.83.83,0,0,1,.812,1.018l-1.206,4.48a1.849,1.849,0,0,0,1.775,2.283h4.763l.474-1.729h-.468a1,1,0,0,1-.986-1.251l1.113-4.154a1.2,1.2,0,0,0-1.156-1.509h.271a1.754,1.754,0,0,0,1.639-1.3l1.348-5.033a1.858,1.858,0,0,0-1.773-2.3m-3.8,3.185L129,77.443a1.762,1.762,0,0,1-1.7,1.315h-1.041l1.366-5h1.668a.554.554,0,0,1,.531.7"/><path class="cls-40" d="M76.435,71.27H81.92l-4.345,16.2a20.056,20.056,0,0,1-7.04,1.341A14.778,14.778,0,0,1,64.2,87.47l4.363-16.2h5.48L70.272,85.381a1.233,1.233,0,0,0,1.052.406,2.021,2.021,0,0,0,1.334-.406Z"/><polygon class="cls-40" points="95.093 71.268 97.26 71.268 92.62 88.551 87.277 88.552 84.991 77.008 84.971 76.192 84.847 76.59 84.711 77.022 81.66 88.551 79.502 88.551 84.133 71.268 89.493 71.27 91.693 82.445 91.904 83.253 91.923 83.253 92.16 82.445 95.093 71.268"/><path class="cls-40" d="M114.16,70.912a19.993,19.993,0,0,0-7.029,1.341l-4.1,15.217a14.72,14.72,0,0,0,6.32,1.341,19.992,19.992,0,0,0,7.028-1.341l4.1-15.217a14.715,14.715,0,0,0-6.316-1.341m-2.685,14.452a2,2,0,0,1-1.308.389c-.877,0-1.072-.405-1.072-.405l2.972-11.039a2.877,2.877,0,0,1,1.323-.406,1.8,1.8,0,0,1,1.069.349Z"/><path class="cls-48" d="M137.91,71.97a1.575,1.575,0,0,0-.474,1.153,1.6,1.6,0,0,0,.471,1.161,1.624,1.624,0,0,0,2.307,0,1.592,1.592,0,0,0,.476-1.161,1.626,1.626,0,0,0-2.78-1.153m2.493,2.5a1.9,1.9,0,1,1,.555-1.345,1.827,1.827,0,0,1-.555,1.345m-.986-2.062a.934.934,0,0,0-.442-.078h-.311v.754H139a.99.99,0,0,0,.348-.047.319.319,0,0,0,.214-.325.316.316,0,0,0-.14-.3m-.392-.328a1.574,1.574,0,0,1,.567.075.515.515,0,0,1,.324.527.455.455,0,0,1-.2.41.8.8,0,0,1-.3.1.5.5,0,0,1,.36.2.57.57,0,0,1,.113.322v.153c0,.047,0,.1,0,.154a.265.265,0,0,0,.02.109l.011.025h-.342l0-.021a.07.07,0,0,1-.006-.023l-.008-.066v-.166a.51.51,0,0,0-.2-.477.873.873,0,0,0-.407-.067h-.289v.82H138.3v-2.08Z"/><path class="cls-48" d="M43.24,80.572l5.072-3.893A3.526,3.526,0,0,1,50.04,78.8l-5.195,3.986a3.519,3.519,0,0,1-1.6-2.217"/><path class="cls-48" d="M41.514,81.905A5.57,5.57,0,0,0,51.9,81.679l3.2,2.451a9.488,9.488,0,0,1-16.754.208Z"/><path class="cls-48" d="M51.749,77.511a5.57,5.57,0,0,0-10.288.287l-3.186-2.444a9.489,9.489,0,0,1,16.633-.265Z"/><polygon class="cls-40" points="69.507 91.411 69.507 95.901 68.197 95.901 68.197 94.163 65.503 94.163 65.503 95.901 64.195 95.901 64.195 91.411 65.503 91.411 65.503 93.085 68.197 93.085 68.197 91.411 69.507 91.411"/><path class="cls-40" d="M75.7,95.042H73.238l-.423.859H71.442l2.322-4.489h1.431L77.517,95.9H76.125Zm-.455-.93-.777-1.591-.782,1.591Z"/><polygon class="cls-40" points="84.756 91.411 84.756 95.901 83.608 95.901 80.708 92.951 80.708 95.901 79.445 95.901 79.445 91.411 80.83 91.411 83.492 94.156 83.492 91.411 84.756 91.411"/><path class="cls-40" d="M92.574,93.656c0,1.412-1.1,2.246-2.823,2.246H87.243V91.411h2.508c1.726,0,2.823.834,2.823,2.245m-1.335,0c0-.8-.628-1.206-1.591-1.206h-1.1v2.413h1.1c.963,0,1.591-.411,1.591-1.207"/><polygon class="cls-40" points="102.337 92.456 100.469 92.456 100.469 95.901 99.161 95.901 99.161 92.456 97.307 92.456 97.307 91.411 102.337 91.411 102.337 92.456"/><path class="cls-40" d="M104,93.656c0-1.52,1.147-2.392,2.924-2.392s2.931.872,2.931,2.392-1.154,2.392-2.931,2.392S104,95.177,104,93.656m4.522,0c0-.846-.61-1.327-1.6-1.327s-1.6.481-1.6,1.327.609,1.328,1.6,1.328,1.6-.481,1.6-1.328"/><path class="cls-40" d="M111.825,93.656c0-1.52,1.148-2.392,2.925-2.392s2.932.872,2.932,2.392-1.154,2.392-2.932,2.392-2.925-.871-2.925-2.392m4.522,0c0-.846-.61-1.327-1.6-1.327s-1.6.481-1.6,1.327.607,1.328,1.6,1.328,1.6-.481,1.6-1.328"/><polygon class="cls-40" points="124.241 94.849 124.241 95.902 119.91 95.902 119.91 91.411 121.22 91.411 121.22 94.849 124.241 94.849"/><path class="cls-40" d="M131.255,94.5c0,.924-.854,1.553-2.484,1.553a4.461,4.461,0,0,1-2.828-.878l.686-.809a3.3,3.3,0,0,0,2.169.7c.769,0,1.155-.141,1.155-.436s-.36-.385-1.284-.463c-1.335-.114-2.545-.41-2.545-1.41,0-.962,1.038-1.488,2.463-1.488a4.316,4.316,0,0,1,2.463.667l-.661.814a3.093,3.093,0,0,0-1.8-.5c-.527,0-1.161.084-1.161.4,0,.3.518.342,1.32.406,1.47.121,2.509.41,2.509,1.442"/></g><path class="cls-40" d="M53.732,146.326l.312,1.6c.08.407.16.838.224,1.287h.016c.08-.449.192-.9.288-1.28l.415-1.607h.96l.392,1.56c.1.439.207.878.287,1.327h.017c.055-.449.135-.888.223-1.335l.336-1.552h1.192l-1.2,3.91H56.051l-.368-1.375c-.1-.384-.168-.735-.248-1.216h-.016a9.121,9.121,0,0,1-.256,1.216l-.392,1.375H53.628l-1.135-3.91Z"/><path class="cls-40" d="M59.956,146.326l.312,1.6c.08.407.16.838.224,1.287h.016c.08-.449.192-.9.288-1.28l.415-1.607h.96l.391,1.56c.105.439.209.878.289,1.327h.016c.055-.449.135-.888.223-1.335l.336-1.552h1.192l-1.2,3.91H62.275l-.368-1.375c-.1-.384-.168-.735-.248-1.216h-.016a9.121,9.121,0,0,1-.256,1.216L61,150.236H59.852l-1.135-3.91Z"/><path class="cls-40" d="M66.18,146.326l.312,1.6c.08.407.159.838.223,1.287h.016c.081-.449.192-.9.289-1.28l.415-1.607h.96l.391,1.56c.1.439.208.878.288,1.327h.016c.056-.449.136-.888.224-1.335l.336-1.552h1.191l-1.2,3.91H68.5l-.368-1.375c-.1-.384-.168-.735-.248-1.216h-.016a9.121,9.121,0,0,1-.256,1.216l-.392,1.375H66.076l-1.136-3.91Z"/><path class="cls-40" d="M70.948,149.589a.7.7,0,0,1,.72-.744.74.74,0,1,1-.72.744Z"/><path class="cls-40" d="M76.8,148.981c0,.512.016.927.032,1.255H75.779l-.056-.552H75.7a1.393,1.393,0,0,1-1.223.64c-.792,0-1.376-.5-1.376-1.7v-2.3h1.223v2.1c0,.567.184.911.608.911a.654.654,0,0,0,.608-.424.679.679,0,0,0,.04-.264v-2.327H76.8Z"/><path class="cls-40" d="M77.78,147.574c0-.488-.016-.9-.032-1.248H78.8l.055.536h.025a1.429,1.429,0,0,1,1.207-.624c.8,0,1.4.528,1.4,1.68v2.318H80.275v-2.167c0-.5-.176-.848-.616-.848a.651.651,0,0,0-.616.457.857.857,0,0,0-.047.3v2.255H77.78Z"/><path class="cls-40" d="M83.724,145.239a.61.61,0,0,1-.656.607.612.612,0,1,1,.008-1.223A.611.611,0,0,1,83.724,145.239Zm-1.256,5v-3.91h1.216v3.91Z"/><path class="cls-40" d="M88.522,148.237a1.962,1.962,0,0,1-2.063,2.087,1.916,1.916,0,0,1-2.023-2.015,1.952,1.952,0,0,1,2.087-2.071A1.9,1.9,0,0,1,88.522,148.237Zm-2.831.04c0,.672.28,1.176.8,1.176.472,0,.776-.472.776-1.176,0-.584-.224-1.175-.776-1.175C85.907,147.1,85.691,147.7,85.691,148.277Z"/><path class="cls-40" d="M89.276,147.614c0-.576-.016-.952-.032-1.288h1.047l.04.72h.032a1.149,1.149,0,0,1,1.055-.808,1.176,1.176,0,0,1,.256.017V147.4a1.841,1.841,0,0,0-.327-.031.781.781,0,0,0-.832.615,1.434,1.434,0,0,0-.024.272v1.983H89.276Z"/><path class="cls-40" d="M93.835,145.207v1.119h.872v.9h-.872v1.417c0,.471.112.687.48.687a2.081,2.081,0,0,0,.36-.032l.008.919a2.386,2.386,0,0,1-.792.1,1.268,1.268,0,0,1-.912-.336,1.621,1.621,0,0,1-.335-1.159v-1.6h-.52v-.9h.52v-.848Z"/><path class="cls-40" d="M99.242,148.237a1.962,1.962,0,0,1-2.063,2.087,1.916,1.916,0,0,1-2.023-2.015,1.952,1.952,0,0,1,2.087-2.071A1.9,1.9,0,0,1,99.242,148.237Zm-2.831.04c0,.672.28,1.176.8,1.176.472,0,.775-.472.775-1.176,0-.584-.223-1.175-.775-1.175C96.627,147.1,96.411,147.7,96.411,148.277Z"/><path class="cls-40" d="M103.882,148.237a1.962,1.962,0,0,1-2.063,2.087,1.916,1.916,0,0,1-2.023-2.015,1.952,1.952,0,0,1,2.087-2.071A1.9,1.9,0,0,1,103.882,148.237Zm-2.831.04c0,.672.28,1.176.8,1.176.472,0,.775-.472.775-1.176,0-.584-.223-1.175-.775-1.175C101.267,147.1,101.051,147.7,101.051,148.277Z"/><path class="cls-40" d="M104.636,144.559h1.215v5.677h-1.215Z"/><path class="cls-40" d="M106.828,149.173a2.39,2.39,0,0,0,1.047.3c.368,0,.52-.128.52-.329s-.12-.295-.576-.447c-.807-.272-1.119-.712-1.111-1.176,0-.727.624-1.279,1.591-1.279a2.631,2.631,0,0,1,1.1.224l-.215.84a1.92,1.92,0,0,0-.848-.224c-.3,0-.464.12-.464.319s.152.281.632.449c.743.255,1.055.631,1.063,1.207,0,.727-.575,1.263-1.695,1.263a2.768,2.768,0,0,1-1.263-.272Z"/><path class="cls-40" d="M110.148,149.589a.7.7,0,0,1,.719-.744.74.74,0,1,1-.719.744Z"/><path class="cls-40" d="M115.25,150.14a2.966,2.966,0,0,1-1.088.176,1.9,1.9,0,0,1-2.071-2,2.04,2.04,0,0,1,2.239-2.079,2.847,2.847,0,0,1,.928.152l-.192.9a1.647,1.647,0,0,0-.68-.12,1.1,1.1,0,0,0,.024,2.191,1.9,1.9,0,0,0,.7-.12Z"/><path class="cls-40" d="M119.706,148.237a1.962,1.962,0,0,1-2.063,2.087,1.916,1.916,0,0,1-2.023-2.015,1.952,1.952,0,0,1,2.087-2.071A1.9,1.9,0,0,1,119.706,148.237Zm-2.831.04c0,.672.28,1.176.8,1.176.471,0,.775-.472.775-1.176,0-.584-.223-1.175-.775-1.175C117.091,147.1,116.875,147.7,116.875,148.277Z"/><path class="cls-40" d="M120.459,147.574c0-.488-.016-.9-.032-1.248h1.024l.056.528h.024a1.355,1.355,0,0,1,1.183-.616,1.109,1.109,0,0,1,1.072.664h.016a1.748,1.748,0,0,1,.5-.472,1.421,1.421,0,0,1,.744-.192c.751,0,1.319.528,1.319,1.695v2.3h-1.183v-2.127c0-.567-.184-.9-.576-.9a.6.6,0,0,0-.56.424,1.037,1.037,0,0,0-.048.311v2.287h-1.183v-2.19c0-.5-.176-.832-.56-.832a.619.619,0,0,0-.567.439.811.811,0,0,0-.048.305v2.278h-1.184Z"/></g></g></g></g></svg>