<?xml version="1.0" encoding="utf-8"?>
<!-- Generator: Adobe Illustrator 25.1.0, SVG Export Plug-In . SVG Version: 6.00 Build 0)  -->
<svg version="1.1" id="Layer_1" xmlns="http://www.w3.org/2000/svg" xmlns:xlink="http://www.w3.org/1999/xlink" x="0px" y="0px"
	 viewBox="0 0 128 23.6" style="enable-background:new 0 0 128 23.6;" xml:space="preserve">
<style type="text/css">
	.st0{fill:#FFFFFF;}
	.st1{fill-rule:evenodd;clip-rule:evenodd;fill:#FFFFFF;}
</style>
<polygon class="st0" points="76.3,1.2 83.3,1.2 77.6,22.8 70.6,22.8 "/>
<path class="st0" d="M118.8,1.2l-13.5,0l-5.8,21.5h6.8l2.6-9.7h1.6c0.6,0,1,0.5,1,1c0,0.1,0,0.2,0,0.2l-1.5,5.6
	c-0.3,1.2,0.5,2.5,1.7,2.8c0.2,0,0.3,0.1,0.5,0.1h5.9l0.6-2.2h-0.6c-0.7,0-1.3-0.5-1.3-1.2c0-0.1,0-0.2,0-0.3l1.4-5.2
	c0.2-0.8-0.3-1.6-1.1-1.8c-0.1,0-0.2,0-0.4,0h0.3c1,0,1.8-0.7,2-1.6l1.7-6.3c0.3-1.2-0.5-2.5-1.7-2.8C119.2,1.2,119,1.2,118.8,1.2
	 M114.1,5.2l-1,3.7c-0.3,1-1.1,1.6-2.1,1.6h-1.3l1.7-6.2h2.1c0.4,0,0.7,0.3,0.7,0.7C114.1,5.1,114.1,5.1,114.1,5.2"/>
<path class="st0" d="M47.6,1.2h6.8L49,21.4c-2.8,1.1-5.8,1.6-8.8,1.7c-2.7,0-5.4-0.5-7.9-1.7l5.4-20.2h6.8l-4.7,17.6
	c0.3,0.4,0.8,0.6,1.3,0.5c0.6,0,1.2-0.1,1.7-0.5L47.6,1.2z"/>
<polygon class="st0" points="70.8,1.2 73.5,1.2 67.7,22.8 61.1,22.8 58.2,8.4 58.2,7.3 58,7.8 57.9,8.4 54.1,22.8 51.4,22.8 
	57.2,1.2 63.8,1.2 66.6,15.1 66.8,16.1 66.9,16.1 67.2,15.1 "/>
<path class="st0" d="M94.6,0.8c-3,0-6,0.6-8.8,1.7l-5.1,19c2.5,1.1,5.2,1.7,7.9,1.7c3,0,6-0.6,8.8-1.7l5.1-19
	C100,1.3,97.3,0.7,94.6,0.8 M91.2,18.8c-0.5,0.3-1,0.5-1.6,0.5c-1.1,0-1.3-0.5-1.3-0.5L92,5c0.5-0.3,1.1-0.5,1.6-0.5
	c0.5,0,0.9,0.1,1.3,0.4L91.2,18.8z"/>
<path class="st1" d="M124.2,2.1c-0.4,0.4-0.6,0.9-0.6,1.4c0,0.5,0.2,1.1,0.6,1.4c0.8,0.8,2.1,0.8,2.9,0c0,0,0,0,0,0
	c0.4-0.4,0.6-0.9,0.6-1.4c0-0.5-0.2-1.1-0.6-1.4C126.3,1.3,125,1.3,124.2,2.1C124.2,2.1,124.2,2.1,124.2,2.1 M127.3,5.2
	c-0.9,0.9-2.4,0.9-3.3,0c0,0,0,0,0,0c-0.4-0.4-0.7-1-0.7-1.7c0-0.6,0.2-1.2,0.7-1.7c0.9-0.9,2.4-0.9,3.3,0c0.5,0.4,0.7,1,0.7,1.7
	C128,4.2,127.8,4.8,127.3,5.2 M126.1,2.6c-0.2-0.1-0.4-0.1-0.5-0.1h-0.4v0.9h0.4c0.1,0,0.3,0,0.4-0.1c0.2-0.1,0.3-0.2,0.3-0.4
	C126.3,2.9,126.2,2.7,126.1,2.6 M125.6,2.2c0.2,0,0.5,0,0.7,0.1c0.3,0.1,0.4,0.4,0.4,0.7c0,0.2-0.1,0.4-0.3,0.5
	c-0.1,0.1-0.2,0.1-0.4,0.1c0.2,0,0.3,0.1,0.4,0.3c0.1,0.1,0.1,0.3,0.1,0.4v0.2c0,0.1,0,0.1,0,0.2c0,0,0,0.1,0,0.1l0,0h-0.4l0,0
	c0,0,0,0,0,0l0-0.1V4.5c0-0.2-0.1-0.5-0.2-0.6c-0.2-0.1-0.3-0.1-0.5-0.1h-0.4v1h-0.5V2.2H125.6z"/>
<path class="st1" d="M6.2,12.8L12.5,8c1,0.6,1.8,1.5,2.2,2.6l-6.5,5C7.2,15,6.5,14,6.2,12.8"/>
<path class="st1" d="M4,14.5c1.5,3.5,5.5,5.2,9.1,3.8c1.8-0.7,3.2-2.2,3.9-4.1l4,3.1C18,23,10.8,25.3,5,22.3c-2.1-1.1-3.8-2.8-5-4.8
	L4,14.5z"/>
<path class="st1" d="M16.8,9c-1.6-3.5-5.7-5.1-9.2-3.5C5.9,6.2,4.6,7.6,4,9.3l-4-3c3.1-5.8,10.2-8,16-4.9C18,2.4,19.6,4,20.7,6
	L16.8,9z"/>
</svg>
