<svg id="Layer_1" data-name="Layer 1" xmlns="http://www.w3.org/2000/svg" viewBox="0 0 127.987 23.645"><defs><style>.cls-1,.cls-2{fill:#0077c0;}.cls-2{fill-rule:evenodd;}</style></defs><polygon class="cls-1" points="76.343 1.209 83.323 1.209 77.554 22.751 70.572 22.751 76.343 1.209"/><path class="cls-1" d="M118.849,1.211l-13.519.02L99.564,22.753H106.4l2.6-9.7h1.621a1.034,1.034,0,0,1,1.013,1.267l-1.5,5.585a2.307,2.307,0,0,0,2.214,2.846h5.935l.591-2.156h-.583a1.252,1.252,0,0,1-1.228-1.559l1.387-5.178A1.5,1.5,0,0,0,117,11.98h.337a2.185,2.185,0,0,0,2.044-1.625l1.681-6.273a2.317,2.317,0,0,0-2.211-2.872m-4.742,3.97L113.078,8.9a2.2,2.2,0,0,1-2.116,1.641h-1.3l1.7-6.23h2.079a.686.686,0,0,1,.662.866"/><path class="cls-1" d="M47.563,1.211H54.4L48.984,21.4a24.981,24.981,0,0,1-8.774,1.671A18.422,18.422,0,0,1,32.316,21.4l5.44-20.192h6.83L39.882,18.8a1.538,1.538,0,0,0,1.31.506,2.519,2.519,0,0,0,1.663-.506Z"/><polygon class="cls-1" points="70.819 1.209 73.52 1.209 67.737 22.751 61.077 22.753 58.227 8.364 58.202 7.347 58.048 7.842 57.879 8.381 54.076 22.751 51.387 22.751 57.158 1.209 63.839 1.211 66.581 15.141 66.845 16.148 66.868 16.148 67.163 15.141 70.819 1.209"/><path class="cls-1" d="M94.586.766a24.938,24.938,0,0,0-8.762,1.671L80.709,21.4a18.342,18.342,0,0,0,7.878,1.672A24.916,24.916,0,0,0,97.348,21.4l5.11-18.966A18.342,18.342,0,0,0,94.586.766M91.239,18.778a2.483,2.483,0,0,1-1.63.486c-1.093,0-1.337-.5-1.337-.5L91.977,5a3.588,3.588,0,0,1,1.649-.506,2.229,2.229,0,0,1,1.332.434Z"/><path class="cls-2" d="M124.188,2.083a1.965,1.965,0,0,0-.59,1.438,1.986,1.986,0,0,0,.587,1.447,2.024,2.024,0,0,0,2.875,0,1.984,1.984,0,0,0,.593-1.447,1.964,1.964,0,0,0-.593-1.438,2.023,2.023,0,0,0-2.872,0M127.3,5.2a2.356,2.356,0,0,1-3.342,0,2.294,2.294,0,0,1-.686-1.676,2.271,2.271,0,0,1,.692-1.666,2.364,2.364,0,0,1,3.336,0,2.26,2.26,0,0,1,.691,1.666A2.285,2.285,0,0,1,127.3,5.2m-1.23-2.57a1.156,1.156,0,0,0-.549-.1h-.389v.939h.412a1.238,1.238,0,0,0,.435-.058.4.4,0,0,0,.266-.405.391.391,0,0,0-.175-.379m-.488-.409a1.947,1.947,0,0,1,.707.094.641.641,0,0,1,.4.656.565.565,0,0,1-.254.511.983.983,0,0,1-.376.126.629.629,0,0,1,.447.254.7.7,0,0,1,.141.4v.19c0,.059,0,.124.006.193a.343.343,0,0,0,.025.135l.014.032h-.426l-.007-.026a.112.112,0,0,1-.007-.029l-.01-.083V4.467A.636.636,0,0,0,126,3.872a1.093,1.093,0,0,0-.508-.084h-.36V4.811h-.457V2.218Z"/><path class="cls-2" d="M6.187,12.805,12.51,7.954A4.394,4.394,0,0,1,14.663,10.6L8.187,15.569a4.389,4.389,0,0,1-2-2.764"/><path class="cls-2" d="M4.037,14.466a6.942,6.942,0,0,0,12.946-.281l3.984,3.055A11.826,11.826,0,0,1,.084,17.5Z"/><path class="cls-2" d="M16.794,8.99A6.944,6.944,0,0,0,3.97,9.346L0,6.3A11.827,11.827,0,0,1,20.731,5.97Z"/></svg>