<svg xmlns="http://www.w3.org/2000/svg" xmlns:xlink="http://www.w3.org/1999/xlink" viewBox="0 0 164.409 164.409"><defs><style>.cls-1{fill:none;}.cls-2{isolation:isolate;}.cls-3{clip-path:url(#clip-path);}.cls-4{clip-path:url(#clip-path-4);}.cls-15,.cls-5{opacity:0.4;}.cls-12,.cls-5,.cls-8{mix-blend-mode:overlay;}.cls-6{clip-path:url(#clip-path-5);}.cls-7{fill:#006bb6;}.cls-19,.cls-8{opacity:0.2;}.cls-9{clip-path:url(#clip-path-6);}.cls-10,.cls-40{fill:#0077c0;}.cls-11{clip-path:url(#clip-path-7);}.cls-12{opacity:0.7;}.cls-13{clip-path:url(#clip-path-8);}.cls-14{clip-path:url(#clip-path-9);}.cls-15,.cls-17,.cls-19,.cls-21{mix-blend-mode:hard-light;}.cls-16{clip-path:url(#clip-path-10);}.cls-17{opacity:0.3;}.cls-18{clip-path:url(#clip-path-11);}.cls-20{clip-path:url(#clip-path-12);}.cls-21{opacity:0.6;}.cls-22{clip-path:url(#clip-path-13);}.cls-23{clip-path:url(#clip-path-14);}.cls-24{clip-path:url(#clip-path-15);}.cls-25{clip-path:url(#clip-path-16);}.cls-26{clip-path:url(#clip-path-17);}.cls-27{clip-path:url(#clip-path-18);}.cls-28{clip-path:url(#clip-path-19);}.cls-29{clip-path:url(#clip-path-20);}.cls-30{clip-path:url(#clip-path-21);}.cls-31{clip-path:url(#clip-path-22);}.cls-32{clip-path:url(#clip-path-23);}.cls-33{clip-path:url(#clip-path-24);}.cls-34{clip-path:url(#clip-path-25);}.cls-35{clip-path:url(#clip-path-26);}.cls-36{clip-path:url(#clip-path-27);}.cls-37{clip-path:url(#clip-path-28);}.cls-38{clip-path:url(#clip-path-29);}.cls-39{clip-path:url(#clip-path-30);}.cls-40{fill-rule:evenodd;}</style><clipPath id="clip-path"><rect class="cls-1" width="164.409" height="164.409"/></clipPath><clipPath id="clip-path-4"><rect class="cls-1" x="-8.504" y="-8.504" width="181.417" height="181.417"/></clipPath><clipPath id="clip-path-5"><rect class="cls-1" x="-8.504" y="126.082" width="57.7" height="46.689"/></clipPath><clipPath id="clip-path-6"><rect class="cls-1" x="36.698" y="130.31" width="52.073" height="42.46"/></clipPath><clipPath id="clip-path-7"><rect class="cls-1" x="72.106" y="130.31" width="37.91" height="42.46"/></clipPath><clipPath id="clip-path-8"><rect class="cls-1" x="103.143" y="147.509" width="55.823" height="25.261"/></clipPath><clipPath id="clip-path-9"><rect class="cls-1" x="139.909" y="128.347" width="33.938" height="44.423"/></clipPath><clipPath id="clip-path-10"><rect class="cls-1" x="-8.504" y="138.179" width="19.409" height="34.592"/></clipPath><clipPath id="clip-path-11"><rect class="cls-1" x="10.905" y="144.757" width="31.713" height="28.013"/></clipPath><clipPath id="clip-path-12"><rect class="cls-1" x="28.288" y="126.082" width="29.54" height="46.689"/></clipPath><clipPath id="clip-path-13"><rect class="cls-1" x="55.715" y="126.082" width="26.956" height="46.689"/></clipPath><clipPath id="clip-path-14"><rect class="cls-1" x="81.578" y="139.823" width="32.453" height="32.947"/></clipPath><clipPath id="clip-path-15"><rect class="cls-1" x="108.863" y="139.823" width="23.492" height="32.947"/></clipPath><clipPath id="clip-path-16"><rect class="cls-1" x="128.127" y="144.757" width="45.72" height="28.013"/></clipPath><clipPath id="clip-path-17"><rect class="cls-1" x="-8.504" y="-8.505" width="181.417" height="181.418"/></clipPath><clipPath id="clip-path-18"><rect class="cls-1" x="-8.504" y="-8.362" width="57.7" height="46.689"/></clipPath><clipPath id="clip-path-19"><rect class="cls-1" x="36.698" y="-8.362" width="52.073" height="42.461"/></clipPath><clipPath id="clip-path-20"><rect class="cls-1" x="72.106" y="-8.362" width="37.91" height="42.461"/></clipPath><clipPath id="clip-path-21"><rect class="cls-1" x="103.143" y="-8.362" width="55.823" height="25.261"/></clipPath><clipPath id="clip-path-22"><rect class="cls-1" x="139.909" y="-8.362" width="33.938" height="44.424"/></clipPath><clipPath id="clip-path-23"><rect class="cls-1" x="-8.504" y="-8.362" width="19.409" height="34.592"/></clipPath><clipPath id="clip-path-24"><rect class="cls-1" x="10.905" y="-8.362" width="31.713" height="28.013"/></clipPath><clipPath id="clip-path-25"><rect class="cls-1" x="28.288" y="-8.362" width="29.54" height="46.689"/></clipPath><clipPath id="clip-path-26"><rect class="cls-1" x="55.715" y="-8.362" width="26.956" height="46.689"/></clipPath><clipPath id="clip-path-27"><rect class="cls-1" x="81.578" y="-8.362" width="32.453" height="32.948"/></clipPath><clipPath id="clip-path-28"><rect class="cls-1" x="108.863" y="-8.362" width="23.492" height="32.948"/></clipPath><clipPath id="clip-path-29"><rect class="cls-1" x="128.127" y="-8.362" width="45.72" height="28.013"/></clipPath><clipPath id="clip-path-30"><rect class="cls-1" x="22.48" y="62.726" width="118.031" height="29.63"/></clipPath></defs><g class="cls-2"><g id="Layer_1_copy" data-name="Layer 1 copy"><g class="cls-3"><g class="cls-3"><g class="cls-3"><g class="cls-4"><g class="cls-5"><g class="cls-6"><polygon class="cls-7" points="15.368 126.082 -8.504 152.51 -8.504 172.77 49.195 172.77 43.91 130.31 15.368 126.082"/></g></g><g class="cls-8"><g class="cls-9"><polygon class="cls-10" points="43.91 130.31 36.697 172.77 88.77 172.77 75.022 130.31 43.91 130.31"/></g></g><g class="cls-5"><g class="cls-11"><polygon class="cls-10" points="75.022 130.31 72.106 172.77 104.186 172.77 110.017 156.049 75.022 130.31"/></g></g><g class="cls-12"><g class="cls-13"><polygon class="cls-10" points="140.844 147.51 110.017 156.049 103.144 172.77 158.966 172.77 140.844 147.51"/></g></g><g class="cls-8"><g class="cls-14"><polygon class="cls-10" points="158.965 128.347 139.909 147.769 158.966 172.77 173.846 172.77 173.846 138.058 158.967 128.347 158.965 128.347"/></g></g><g class="cls-15"><g class="cls-16"><polygon class="cls-10" points="0.099 138.178 -8.504 142.408 -8.504 172.77 10.905 172.77 10.905 149.424 0.099 138.178"/></g></g><g class="cls-17"><g class="cls-18"><polygon class="cls-10" points="28.289 144.757 10.906 149.425 10.906 172.77 42.618 172.77 28.289 144.757"/></g></g><g class="cls-19"><g class="cls-20"><polygon class="cls-10" points="28.289 144.757 42.617 172.77 55.715 172.77 57.829 126.101 57.829 126.082 28.289 144.757"/></g></g><g class="cls-21"><g class="cls-22"><polygon class="cls-10" points="57.829 126.082 55.715 172.77 82.672 172.77 81.578 150.56 57.829 126.082"/></g></g><g class="cls-15"><g class="cls-23"><polygon class="cls-10" points="81.579 150.559 82.672 172.77 114.032 172.77 108.863 139.824 81.579 150.559"/></g></g><g class="cls-19"><g class="cls-24"><polygon class="cls-10" points="114.033 172.77 128.127 172.77 132.355 155.479 132.355 155.475 108.863 139.823 114.033 172.77"/></g></g><g class="cls-17"><g class="cls-25"><polygon class="cls-10" points="132.356 155.475 128.127 172.77 173.847 172.77 173.847 144.758 132.356 155.475"/></g></g></g><g class="cls-26"><g class="cls-5"><g class="cls-27"><polygon class="cls-7" points="-8.504 -8.361 -8.504 11.9 15.368 38.327 43.91 34.098 49.196 -8.361 -8.504 -8.361"/></g></g><g class="cls-8"><g class="cls-28"><polygon class="cls-10" points="36.697 -8.361 43.91 34.099 75.022 34.099 88.769 -8.361 36.697 -8.361"/></g></g><g class="cls-5"><g class="cls-29"><polygon class="cls-10" points="72.106 -8.361 75.022 34.099 110.017 8.36 104.186 -8.361 72.106 -8.361"/></g></g><g class="cls-12"><g class="cls-30"><polygon class="cls-10" points="103.144 -8.361 110.017 8.359 140.844 16.899 158.966 -8.361 103.144 -8.361"/></g></g><g class="cls-8"><g class="cls-31"><polygon class="cls-10" points="158.966 -8.361 139.909 16.64 158.965 36.062 158.967 36.062 173.847 26.351 173.847 -8.361 158.966 -8.361"/></g></g><g class="cls-15"><g class="cls-32"><polygon class="cls-10" points="-8.504 -8.361 -8.504 22 0.099 26.23 10.905 14.984 10.905 -8.361 -8.504 -8.361"/></g></g><g class="cls-17"><g class="cls-33"><polygon class="cls-10" points="10.905 -8.361 10.905 14.983 28.288 19.651 42.617 -8.361 10.905 -8.361"/></g></g><g class="cls-19"><g class="cls-34"><polygon class="cls-10" points="42.617 -8.361 28.289 19.651 57.828 38.327 57.828 38.308 55.714 -8.361 42.617 -8.361"/></g></g><g class="cls-21"><g class="cls-35"><polygon class="cls-10" points="55.715 -8.361 57.828 38.327 81.577 13.849 82.672 -8.361 55.715 -8.361"/></g></g><g class="cls-15"><g class="cls-36"><polygon class="cls-10" points="82.671 -8.361 81.578 13.85 108.863 24.585 114.032 -8.361 82.671 -8.361"/></g></g><g class="cls-19"><g class="cls-37"><polygon class="cls-10" points="114.033 -8.361 108.863 24.586 132.355 8.934 132.355 8.93 128.127 -8.361 114.033 -8.361"/></g></g><g class="cls-17"><g class="cls-38"><polygon class="cls-10" points="128.127 -8.361 132.356 8.934 173.847 19.651 173.847 -8.361 128.127 -8.361"/></g></g></g></g><polygon class="cls-10" points="92.885 63.84 99.322 63.84 94.002 83.706 87.563 83.706 92.885 63.84"/><g class="cls-39"><path class="cls-10" d="M132.084,63.842l-12.466.018L114.3,83.709h6.3l2.4-8.943h1.5a.953.953,0,0,1,.934,1.168l-1.387,5.151a2.126,2.126,0,0,0,2.041,2.624h5.474l.545-1.988h-.538a1.156,1.156,0,0,1-1.133-1.438l1.28-4.775a1.382,1.382,0,0,0-1.329-1.734h.311a2.015,2.015,0,0,0,1.884-1.5l1.55-5.786a2.136,2.136,0,0,0-2.039-2.648M127.712,67.5l-.949,3.433a2.026,2.026,0,0,1-1.952,1.514h-1.2l1.569-5.747H127.1a.635.635,0,0,1,.611.8"/><path class="cls-10" d="M66.344,63.842h6.305l-5,18.622a23.048,23.048,0,0,1-8.092,1.541,16.989,16.989,0,0,1-7.279-1.541L57.3,63.842h6.3L59.26,80.063a1.418,1.418,0,0,0,1.209.466A2.325,2.325,0,0,0,62,80.063Z"/><polygon class="cls-10" points="87.791 63.84 90.282 63.84 84.949 83.706 78.807 83.708 76.178 70.438 76.155 69.501 76.013 69.957 75.858 70.454 72.35 83.706 69.87 83.706 75.193 63.84 81.354 63.842 83.883 76.688 84.125 77.617 84.147 77.617 84.419 76.688 87.791 63.84"/><path class="cls-10" d="M109.709,63.431a23,23,0,0,0-8.081,1.541L96.911,82.464a16.934,16.934,0,0,0,7.265,1.542,23,23,0,0,0,8.079-1.542l4.713-17.492a16.922,16.922,0,0,0-7.259-1.541m-3.087,16.612a2.293,2.293,0,0,1-1.5.447c-1.009,0-1.233-.465-1.233-.465L107.3,67.336a3.305,3.305,0,0,1,1.52-.467,2.06,2.06,0,0,1,1.229.4Z"/><path class="cls-40" d="M137.008,64.648a1.812,1.812,0,0,0-.544,1.326,1.832,1.832,0,0,0,.541,1.334,1.866,1.866,0,0,0,2.652,0,1.83,1.83,0,0,0,.547-1.334,1.87,1.87,0,0,0-3.2-1.326m2.866,2.871a2.18,2.18,0,1,1,.638-1.545,2.1,2.1,0,0,1-.638,1.545m-1.134-2.37a1.067,1.067,0,0,0-.507-.089h-.358v.866h.38a1.127,1.127,0,0,0,.4-.054.367.367,0,0,0,.246-.373.362.362,0,0,0-.161-.35m-.45-.378a1.791,1.791,0,0,1,.652.088.591.591,0,0,1,.372.605.521.521,0,0,1-.236.471.9.9,0,0,1-.346.116.583.583,0,0,1,.413.234.655.655,0,0,1,.13.371v.175c0,.055,0,.115,0,.178a.322.322,0,0,0,.024.125l.012.029h-.392l-.007-.024a.091.091,0,0,1-.006-.026l-.01-.078v-.189a.586.586,0,0,0-.226-.549,1.015,1.015,0,0,0-.468-.077h-.332v.943h-.421V64.771Z"/><path class="cls-40" d="M28.187,74.535l5.83-4.475A4.06,4.06,0,0,1,36,72.5l-5.973,4.582a4.051,4.051,0,0,1-1.844-2.549"/><path class="cls-40" d="M26.2,76.067a6.4,6.4,0,0,0,11.938-.26l3.674,2.817a10.906,10.906,0,0,1-19.258.24Z"/><path class="cls-40" d="M37.968,71.017a6.4,6.4,0,0,0-11.826.328L22.48,68.537a10.908,10.908,0,0,1,19.12-.305Z"/><polygon class="cls-10" points="59.413 86.994 59.413 92.157 57.916 92.157 57.916 88.86 55.859 91.382 55.785 91.382 53.728 88.86 53.728 92.157 52.275 92.157 52.275 86.994 53.919 86.994 55.859 89.473 57.813 86.994 59.413 86.994"/><path class="cls-10" d="M61.968,89.575c0-1.748,1.32-2.75,3.363-2.75s3.37,1,3.37,2.75-1.327,2.75-3.37,2.75-3.363-1-3.363-2.75m5.2,0c0-.973-.7-1.525-1.836-1.525S63.5,88.6,63.5,89.575s.7,1.525,1.836,1.525,1.836-.552,1.836-1.525"/><polygon class="cls-10" points="76.389 88.196 74.243 88.196 74.243 92.157 72.739 92.157 72.739 88.196 70.608 88.196 70.608 86.994 76.389 86.994 76.389 88.196"/><path class="cls-10" d="M78.289,89.575c0-1.748,1.32-2.75,3.363-2.75s3.369,1,3.369,2.75-1.327,2.75-3.369,2.75-3.363-1-3.363-2.75m5.2,0c0-.973-.7-1.525-1.836-1.525s-1.836.552-1.836,1.525.7,1.525,1.836,1.525,1.836-.552,1.836-1.525"/><polygon class="cls-10" points="96.228 88.196 94.083 88.196 94.083 92.157 92.579 92.157 92.579 88.196 90.448 88.196 90.448 86.994 96.228 86.994 96.228 88.196"/><path class="cls-10" d="M98.127,89.575c0-1.748,1.319-2.75,3.362-2.75s3.37,1,3.37,2.75-1.327,2.75-3.37,2.75-3.362-1-3.362-2.75m5.2,0c0-.973-.7-1.525-1.837-1.525s-1.835.552-1.835,1.525.7,1.525,1.835,1.525,1.837-.552,1.837-1.525"/><path class="cls-10" d="M107.119,89.575c0-1.748,1.321-2.75,3.364-2.75s3.37,1,3.37,2.75-1.327,2.75-3.37,2.75-3.364-1-3.364-2.75m5.2,0c0-.973-.7-1.525-1.835-1.525s-1.835.552-1.835,1.525.7,1.525,1.835,1.525,1.835-.552,1.835-1.525"/><polygon class="cls-10" points="121.385 90.946 121.385 92.156 116.409 92.156 116.409 86.994 117.912 86.994 117.912 90.946 121.385 90.946"/><path class="cls-10" d="M129.442,90.541c0,1.062-.979,1.785-2.853,1.785a5.127,5.127,0,0,1-3.251-1.01l.788-.93a3.775,3.775,0,0,0,2.491.8c.887,0,1.328-.162,1.328-.5s-.412-.443-1.475-.532c-1.533-.132-2.926-.472-2.926-1.621,0-1.106,1.193-1.711,2.831-1.711a4.955,4.955,0,0,1,2.831.768l-.758.936a3.547,3.547,0,0,0-2.073-.577c-.6,0-1.335.1-1.335.465,0,.348.6.391,1.52.465,1.688.141,2.882.472,2.882,1.659"/></g></g></g></g></g></svg>